<?xml version="1.0" standalone="no"?>
<!DOCTYPE svg PUBLIC "-//W3C//DTD SVG 20010904//EN"
 "http://www.w3.org/TR/2001/REC-SVG-20010904/DTD/svg10.dtd">
<svg version="1.0" xmlns="http://www.w3.org/2000/svg"
 width="736.000000pt" height="736.000000pt" viewBox="0 0 736.000000 736.000000"
 preserveAspectRatio="xMidYMid meet">
<metadata>
Created by potrace 1.13, written by Peter Selinger 2001-2015
</metadata>
<g transform="translate(0.000000,736.000000) scale(0.100000,-0.100000)"
fill="#000000" stroke="none">
<path d="M2165 6368 c-247 -70 -478 -155 -726 -268 -313 -144 -587 -330 -819
-560 -206 -202 -286 -318 -392 -566 -70 -162 -81 -223 -81 -449 -1 -265 24
-376 128 -580 134 -264 437 -570 810 -816 139 -92 495 -277 495 -257 0 8 -21
47 -47 88 -103 166 -147 301 -147 460 -1 94 2 111 25 155 52 102 179 165 333
165 187 0 338 -73 525 -254 116 -113 207 -225 237 -293 13 -29 26 -53 29 -53
3 0 32 55 64 123 67 138 121 205 204 255 159 96 341 20 538 -226 111 -138 187
-300 278 -590 25 -79 47 -132 53 -130 7 3 22 44 34 94 76 301 199 539 364 704
186 186 331 230 476 145 87 -51 198 -208 235 -332 7 -24 15 -43 18 -43 3 0 16
17 28 38 11 21 49 76 84 122 204 277 395 410 630 440 133 16 249 -14 329 -86
64 -57 82 -107 88 -239 4 -100 2 -117 -22 -190 -15 -44 -56 -135 -91 -202 -35
-68 -59 -123 -53 -123 18 0 326 162 424 223 118 73 250 172 373 280 242 213
395 430 507 722 l39 100 0 275 c0 331 -1 337 -115 567 -98 198 -163 287 -340
463 -213 214 -452 381 -775 543 -225 112 -416 185 -715 273 -237 69 -272 71
-212 7 44 -48 218 -397 247 -497 34 -119 52 -349 37 -468 -20 -155 -109 -330
-214 -422 -101 -88 -245 -144 -337 -131 -108 15 -243 114 -327 240 -56 84
-104 245 -119 400 -3 39 -17 170 -31 292 -13 123 -31 301 -39 395 -8 95 -18
188 -21 206 l-7 33 -34 -33 c-19 -18 -44 -49 -56 -68 -12 -19 -31 -43 -43 -52
-11 -9 -38 -42 -59 -72 l-38 -56 -262 0 -261 0 -26 28 c-13 15 -47 56 -74 92
-57 77 -123 150 -134 150 -5 0 -11 -30 -15 -67 -4 -38 -17 -162 -30 -278 -13
-115 -31 -291 -40 -390 -27 -306 -49 -407 -118 -539 -81 -157 -233 -272 -371
-283 -51 -5 -73 -1 -131 22 -293 117 -438 413 -396 810 22 205 130 464 285
680 8 11 17 30 21 43 6 20 3 22 -37 21 -24 0 -106 -19 -183 -41z"/>
</g>
</svg>
